<svg width="32" height="33" viewBox="0 0 32 33" fill="none" xmlns="http://www.w3.org/2000/svg">
  <path d="M15.989 11.1645C13.0511 11.1645 10.6535 13.5621 10.6535 16.5C10.6535 19.4379 13.0511 21.8355 15.989 21.8355C18.9269 21.8355 21.3245 19.4379 21.3245 16.5C21.3245 13.5621 18.9269 11.1645 15.989 11.1645ZM31.9915 16.5C31.9915 14.2906 32.0115 12.1011 31.8875 9.89567C31.7634 7.33398 31.179 5.06049 29.3058 3.18726C27.4285 1.31003 25.159 0.729646 22.5974 0.605564C20.3879 0.481483 18.1985 0.501496 15.993 0.501496C13.7836 0.501496 11.5941 0.481483 9.38868 0.605564C6.827 0.729646 4.5535 1.31403 2.68027 3.18726C0.803038 5.06449 0.222657 7.33398 0.0985755 9.89567C-0.025506 12.1051 -0.00549279 14.2946 -0.00549279 16.5C-0.00549279 18.7055 -0.025506 20.8989 0.0985755 23.1043C0.222657 25.666 0.807041 27.9395 2.68027 29.8128C4.55751 31.69 6.827 32.2704 9.38868 32.3944C11.5981 32.5185 13.7876 32.4985 15.993 32.4985C18.2025 32.4985 20.3919 32.5185 22.5974 32.3944C25.159 32.2704 27.4325 31.686 29.3058 29.8128C31.183 27.9355 31.7634 25.666 31.8875 23.1043C32.0155 20.8989 31.9915 18.7095 31.9915 16.5ZM15.989 24.7094C11.446 24.7094 7.77962 21.043 7.77962 16.5C7.77962 11.957 11.446 8.29061 15.989 8.29061C20.532 8.29061 24.1984 11.957 24.1984 16.5C24.1984 21.043 20.532 24.7094 15.989 24.7094ZM24.5346 9.87165C23.4739 9.87165 22.6174 9.01509 22.6174 7.95439C22.6174 6.8937 23.4739 6.03713 24.5346 6.03713C25.5953 6.03713 26.4519 6.8937 26.4519 7.95439C26.4522 8.20626 26.4028 8.45571 26.3066 8.68847C26.2104 8.92122 26.0691 9.13271 25.891 9.31081C25.7129 9.4889 25.5015 9.63011 25.2687 9.72635C25.036 9.82259 24.7865 9.87197 24.5346 9.87165Z" fill="white"/>
</svg>
