<svg width="33" height="33" viewBox="0 0 33 33" fill="none" xmlns="http://www.w3.org/2000/svg">
  <path d="M31.2316 0.489624H1.7725C1.06404 0.489624 0.491669 1.062 0.491669 1.77046V31.2296C0.491669 31.938 1.06404 32.5104 1.7725 32.5104H31.2316C31.9401 32.5104 32.5124 31.938 32.5124 31.2296V1.77046C32.5124 1.062 31.9401 0.489624 31.2316 0.489624ZM9.98983 27.7753H5.23875V12.4934H9.98983V27.7753ZM7.61629 10.4041C7.07164 10.4041 6.53923 10.2425 6.08637 9.93996C5.63351 9.63737 5.28055 9.20729 5.07212 8.7041C4.8637 8.20091 4.80916 7.64722 4.91542 7.11303C5.02167 6.57885 5.28395 6.08817 5.66907 5.70305C6.05419 5.31792 6.54487 5.05565 7.07905 4.9494C7.61324 4.84314 8.16693 4.89768 8.67012 5.1061C9.17331 5.31453 9.60339 5.66749 9.90598 6.12035C10.2086 6.57321 10.3701 7.10562 10.3701 7.65027C10.3661 9.17126 9.13328 10.4041 7.61629 10.4041ZM27.7774 27.7753H23.0303V20.3425C23.0303 18.5694 22.9983 16.2919 20.5607 16.2919C18.0911 16.2919 17.7108 18.2211 17.7108 20.2144V27.7753H12.9678V12.4934H17.5227V14.5828H17.5868C18.2192 13.382 19.7682 12.1132 22.0817 12.1132C26.8928 12.1132 27.7774 15.2792 27.7774 19.3939V27.7753Z" fill="white"/>
</svg>
