<svg width="30" height="29" viewBox="0 0 30 29" fill="none" xmlns="http://www.w3.org/2000/svg">
  <path d="M15 17.125C17.6196 17.125 19.75 14.9946 19.75 12.375C19.75 9.75537 17.6196 7.625 15 7.625C12.3804 7.625 10.25 9.75537 10.25 12.375C10.25 14.9946 12.3804 17.125 15 17.125ZM15 10C16.3098 10 17.375 11.0652 17.375 12.375C17.375 13.6848 16.3098 14.75 15 14.75C13.6902 14.75 12.625 13.6848 12.625 12.375C12.625 11.0652 13.6902 10 15 10Z" fill="white"/>
  <path d="M14.3113 26.4042C14.5122 26.5478 14.753 26.6249 15 26.6249C15.247 26.6249 15.4878 26.5478 15.6888 26.4042C16.0498 26.1489 24.5345 20.0226 24.5 12.3751C24.5 7.13706 20.2381 2.87512 15 2.87512C9.76195 2.87512 5.50001 7.13706 5.50001 12.3692C5.46558 20.0226 13.9503 26.1489 14.3113 26.4042ZM15 5.25012C18.9295 5.25012 22.125 8.44568 22.125 12.3811C22.15 17.6512 16.9143 22.3834 15 23.9354C13.087 22.3822 7.85008 17.6488 7.87501 12.3751C7.87501 8.44568 11.0706 5.25012 15 5.25012Z" fill="white"/>
</svg>
