<svg width="616" height="233" viewBox="0 0 616 233" fill="none" xmlns="http://www.w3.org/2000/svg">
  <path d="M10.6186 73.0728L0 59.074V147.197H10.6186V73.0728Z" fill="black"/>
  <path d="M58.5705 101.332L13.2708 41.4189H0L58.5705 118.849L106.527 55.5065V147.197H117.146V41.4189H103.826L58.5705 101.332Z" fill="black"/>
  <path d="M306.568 120.418L272.583 41.4189H261.006L300.779 133.849L306.568 120.418Z" fill="black"/>
  <path d="M306.479 147.197H318.056L363.573 41.4189H352.085L306.479 147.197Z" fill="black"/>
  <path d="M131.202 147.197H141.821V73.0728L131.202 59.074V147.197Z" fill="black"/>
  <path d="M248.343 147.197V41.4189H235.028L189.772 101.332L144.473 41.4189H131.202L189.772 118.849L237.729 55.5065V147.197H248.343Z" fill="black"/>
  <path d="M12.5153 175.308H10.11L2.12877 184.989H2.06456V175.308H0.098877V197.389H2.06456V186.573H2.12877L10.6434 197.389H13.2462L3.67464 185.813L12.5153 175.308Z" fill="black"/>
  <path d="M31.925 181.031C29.0407 181.031 26.1909 183.464 26.1909 189.292C26.1909 194.828 28.4727 197.616 32.5275 197.616C33.9203 197.616 35.1205 197.364 36.2959 196.698L36.2021 194.576C35.3131 195.371 33.7623 195.908 32.7152 195.908C29.8358 195.908 28.1517 193.821 28.1517 189.928H37.0812C37.0861 185.872 36.5824 181.031 31.925 181.031ZM28.1566 188.216C28.2208 185.27 29.742 182.744 31.8311 182.744C33.8561 182.744 35.1254 184.796 35.1254 188.216H28.1566Z" fill="black"/>
  <path d="M58.0766 181.031C55.1923 181.031 52.3425 183.464 52.3425 189.292C52.3425 194.828 54.6243 197.616 58.6791 197.616C60.0719 197.616 61.2721 197.364 62.4475 196.698L62.3537 194.576C61.4647 195.371 59.9139 195.908 58.8668 195.908C55.9874 195.908 54.3033 193.821 54.3033 189.928H63.2328C63.2378 185.872 62.734 181.031 58.0766 181.031ZM54.3033 188.216C54.3675 185.27 55.8887 182.744 57.9778 182.744C60.0028 182.744 61.2721 184.796 61.2721 188.216H54.3033Z" fill="black"/>
  <path d="M85.1171 181.031C83.2502 181.031 81.9859 181.949 80.8746 183.622H80.8104V181.253H79.1016C79.23 184.194 79.23 185.018 79.23 186V204.228H81.0672V195.371H81.1315C81.9266 196.797 83.2848 197.616 85.2209 197.616C89.0189 197.616 90.5746 193.535 90.5746 188.818C90.5648 187.801 90.4363 181.031 85.1171 181.031ZM84.8998 195.904C82.46 195.904 80.9388 194.384 80.9388 189.163C80.9388 184.831 82.3958 182.744 84.8998 182.744C87.3051 182.744 88.604 184.89 88.604 189.356C88.604 193.565 87.3989 195.904 84.8998 195.904Z" fill="black"/>
  <path d="M132.802 181.031C130.871 181.031 129.696 181.855 128.713 183.341H128.649V173.66H126.811V193.308C126.811 195.05 126.683 197.167 126.683 197.389H128.392V195.173H128.456C129.725 196.915 130.891 197.611 132.698 197.611C136.215 197.611 138.146 194.571 138.146 188.754C138.156 184.668 136.319 181.031 132.802 181.031ZM132.516 195.904C129.854 195.904 128.525 193.658 128.525 189.484C128.525 187.397 128.555 182.744 132.451 182.744C134.985 182.744 136.19 185.048 136.19 189.321C136.19 193.782 134.832 195.904 132.516 195.904Z" fill="black"/>
  <path d="M164.623 181.253H162.786V191.408C162.786 193.688 161.393 195.904 159.112 195.904C157.116 195.904 156.104 194.793 156.104 192.267V181.253H154.267V192.647C154.267 195.716 155.788 197.616 158.731 197.616C160.662 197.616 162.312 196.506 162.85 195.02H162.915C162.915 195.78 162.944 196.54 163.043 197.394H164.752C164.688 195.178 164.628 193.249 164.628 192.711V181.253H164.623Z" fill="black"/>
  <path d="M183.584 181.253H181.747V197.389H183.584V181.253Z" fill="black"/>
  <path d="M183.772 174.829H181.554V177.676H183.772V174.829Z" fill="black"/>
  <path d="M202.713 173.66H200.875V197.389H202.713V173.66Z" fill="black"/>
  <path d="M230.321 173.66H228.484V183.341H228.419C227.565 181.821 226.365 181.031 224.335 181.031C220.848 181.031 218.981 184.638 218.981 188.754C218.981 194.571 220.912 197.611 224.429 197.611C226.202 197.611 227.308 196.945 228.671 195.173H228.736V197.389H230.444C230.316 194.448 230.316 192.894 230.316 192.04V173.66H230.321ZM224.621 195.904C222.315 195.904 220.947 193.787 220.947 189.321C220.947 184.86 222.28 182.744 224.656 182.744C228.424 182.744 228.617 186.888 228.617 189.484C228.617 193.658 227.283 195.904 224.621 195.904Z" fill="black"/>
  <path d="M249.345 174.829H247.128V177.676H249.345V174.829Z" fill="black"/>
  <path d="M249.158 181.253H247.321V197.389H249.158V181.253Z" fill="black"/>
  <path d="M272.173 181.031C270.371 181.031 268.943 181.885 268.054 183.622H267.99C267.96 182.704 267.931 181.786 267.867 181.253H266.158C266.158 182.142 266.286 184.732 266.286 186.222V197.394H268.123V187.268C268.123 184.93 269.551 182.744 271.798 182.744C274.677 182.744 274.806 185.211 274.806 186.38V197.394H276.643V186.474C276.643 185.591 276.673 181.031 272.173 181.031Z" fill="black"/>
  <path d="M302.503 183.622H302.439C301.456 181.944 300.226 181.031 298.196 181.031C294.68 181.031 292.749 184.066 292.749 189.923C292.749 194.038 294.68 197.616 298.102 197.616C299.999 197.616 301.204 196.821 302.187 195.178H302.251V197.522C302.251 200.843 300.794 202.713 298.038 202.713C296.734 202.713 294.872 202.239 293.568 201.474L293.445 203.532C295.909 204.262 296.453 204.42 298.038 204.42C302.123 204.42 304.083 201.825 304.083 197.172V186C304.083 184.352 304.212 181.382 304.212 181.253H302.503V183.622ZM298.423 195.904C295.984 195.904 294.714 193.629 294.714 189.356C294.714 184.89 296.018 182.744 298.389 182.744C301.051 182.744 302.384 184.989 302.384 189.134C302.379 193.91 301.08 195.904 298.423 195.904Z" fill="black"/>
  <path d="M318.075 194.29H315.606V197.389H318.075V194.29Z" fill="black"/>
  <path d="M552.179 85.1669L545.606 69.8951L523.05 58.1711L529.623 73.4429L552.179 85.1669Z" fill="black"/>
  <path d="M569.856 94.3744V152.17L580.361 127.814V88.4679C580.361 88.1867 580.203 87.9005 579.951 87.7771L554.787 74.6715L561.361 89.9433L569.856 94.3744Z" fill="black"/>
  <path d="M615.215 0H481.588C481.558 0 481.558 0.0296061 481.558 0.0296061H392.475C392.035 0.0296061 391.69 0.375011 391.69 0.814168V232.245C391.69 232.655 392.035 233 392.475 233H615.215C615.654 233 616 232.655 616 232.215V0.784562C616 0.375011 615.654 0 615.215 0ZM402.16 1.60366H480.768V8.92624H402.16V1.60366ZM400.59 231.46H393.26V224.108H400.59V231.46ZM400.59 222.534H393.26V10.4954H400.59V222.534ZM400.59 8.92624H393.26V1.60366H400.59V8.92624ZM418.424 231.46H402.16V224.108H418.424V231.46ZM427.329 231.46H420V224.108H427.329V231.46ZM427.329 222.534H420V171.528L427.329 167.723V222.534ZM427.329 165.937L420 169.771V161.477L427.329 157.672V165.937ZM480.773 231.46H428.899V224.108H480.773V231.46ZM569.856 222.534H509.083V138.907C509.083 138.626 508.924 138.374 508.702 138.216C508.48 138.088 508.169 138.058 507.947 138.216L499.047 142.805C498.765 142.963 498.607 143.215 498.607 143.525V222.534H428.899V166.909L481.933 139.316L525.346 116.688V205.53C525.346 205.97 525.692 206.315 526.132 206.315H535.032C535.471 206.315 535.817 205.97 535.817 205.53V197.389H569.851V222.534H569.856ZM428.899 165.118V156.853L445.163 148.401V156.666L428.899 165.118ZM454.033 128.13V142.02L446.734 145.825V131.964L454.033 128.13ZM446.734 130.173V121.938L454.033 118.133V126.369L446.734 130.173ZM454.033 143.782V152.047L446.734 155.851V147.586L454.033 143.782ZM480.802 114.206V114.235L498.607 104.963V118.824L481.212 127.874C481.212 127.874 481.212 127.874 481.183 127.903L455.609 141.196V127.306L480.802 114.206ZM455.609 125.55V117.314L480.773 104.179V112.444L455.609 125.55ZM480.802 129.857V138.152L455.609 151.223V142.958L480.802 129.857ZM605.495 222.534H580.361V144.28L569.856 168.666V186.923H535.822V100.754C535.822 100.473 535.698 100.222 535.446 100.064C535.224 99.9403 534.913 99.9403 534.691 100.064L509.087 113.391V62.7304L520.442 68.6368L513.898 53.3946L490.838 41.4189C490.586 41.2906 490.305 41.2906 490.083 41.4485C489.831 41.5768 489.702 41.8581 489.702 42.1097V52.1363C489.702 52.4176 489.86 52.7038 490.112 52.8271L498.607 57.2582V93.1457L482.343 101.633V101.603L436.668 125.392C436.258 125.614 436.13 126.083 436.323 126.462C436.545 126.837 437.014 126.995 437.394 126.808L445.163 122.752V130.987L436.673 135.418C436.263 135.64 436.135 136.109 436.328 136.489C436.486 136.741 436.737 136.899 437.019 136.899C437.147 136.899 437.271 136.869 437.399 136.805L445.168 132.783V146.644L409.717 165.059C409.341 165.246 409.183 165.72 409.401 166.13C409.529 166.381 409.811 166.539 410.092 166.539C410.22 166.539 410.344 166.51 410.438 166.445L418.429 162.296V170.59L409.717 175.115C409.341 175.303 409.183 175.776 409.401 176.186C409.529 176.438 409.811 176.595 410.092 176.595C410.22 176.595 410.344 176.566 410.438 176.502L418.429 172.352V222.539H402.165V10.4954H481.563C481.563 10.4954 481.563 10.4954 481.593 10.4954H605.5V222.534H605.495Z" fill="black"/>
</svg>
